<?xml version="1.0" standalone="no"?>
<!DOCTYPE svg PUBLIC "-//W3C//DTD SVG 20010904//EN"
 "http://www.w3.org/TR/2001/REC-SVG-20010904/DTD/svg10.dtd">
<svg version="1.0" xmlns="http://www.w3.org/2000/svg"
 width="600.000000pt" height="600.000000pt" viewBox="0 0 600.000000 600.000000"
 preserveAspectRatio="xMidYMid meet">
<metadata>
Created by potrace 1.11, written by Peter Selinger 2001-2013
</metadata>
<g transform="translate(0.000000,600.000000) scale(0.100000,-0.100000)"
fill="#000000" stroke="none">
<path d="M0 3000 l0 -3000 3000 0 3000 0 0 3000 0 3000 -3000 0 -3000 0 0
-3000z m3205 1141 c124 -58 184 -149 193 -288 l5 -83 -82 0 c-97 0 -117 8
-126 52 -17 79 -60 118 -130 118 -54 0 -90 -24 -115 -75 -30 -63 -18 -95 72
-180 68 -65 71 -69 49 -77 -89 -33 -223 116 -207 231 13 97 101 173 201 175
70 1 139 -40 172 -103 32 -61 42 -71 69 -71 33 0 32 40 -2 108 -30 60 -68 96
-139 128 -96 45 -197 24 -284 -59 -88 -85 -113 -193 -67 -292 33 -72 69 -110
179 -191 54 -40 99 -74 99 -76 1 -2 -3 -12 -9 -22 -10 -18 -15 -17 -99 24
-103 50 -195 134 -234 215 -21 42 -25 65 -24 140 0 113 26 184 92 256 38 41
60 55 117 75 101 34 191 33 270 -5z m-2536 -581 c198 -209 198 -181 4 -386
-80 -85 -155 -159 -165 -165 -21 -11 -52 2 -62 27 -3 8 -6 77 -6 152 0 111 3
139 16 153 15 17 15 20 0 43 -13 20 -16 53 -16 169 0 154 4 167 51 167 22 0
56 -30 178 -160z m2524 14 c107 -54 197 -155 229 -257 51 -159 -33 -356 -184
-431 -91 -46 -240 -32 -339 30 -80 50 -114 111 -174 312 -6 22 -6 22 104 22
l110 0 11 -40 c15 -55 63 -107 111 -120 75 -20 147 38 157 127 5 45 5 45 -67
113 -66 63 -71 70 -59 89 7 12 16 21 21 21 4 0 35 -18 68 -41 74 -50 98 -96
99 -185 0 -122 -71 -194 -192 -194 -81 0 -130 26 -172 93 -28 43 -68 77 -91
77 -8 0 -5 -44 5 -82 13 -46 90 -133 144 -160 119 -62 297 5 361 136 53 109
41 220 -33 307 -20 23 -81 75 -135 115 -95 70 -97 73 -76 87 23 16 37 14 102
-19z m-2033 -474 l0 -260 135 0 135 0 0 233 c0 167 4 239 13 257 12 23 18 25
100 28 l87 3 0 -304 0 -305 -25 -4 -25 -5 0 273 0 274 -40 0 -40 0 0 -255 0
-255 -190 0 -190 0 0 254 0 254 -30 4 c-17 3 -32 2 -35 0 -3 -3 -5 -80 -5
-171 -1 -91 -5 -211 -11 -266 -6 -55 -9 -109 -9 -120 1 -11 4 -148 8 -305 l7
-285 35 0 35 0 3 273 2 272 185 0 185 0 0 -269 c0 -291 -2 -281 55 -281 l23 0
5 273 c3 149 8 282 12 295 5 15 15 22 31 22 l24 0 0 -299 c0 -171 -4 -311 -10
-325 -9 -25 -13 -26 -89 -26 -61 0 -82 4 -92 17 -11 13 -13 56 -10 205 1 103
0 220 -4 258 l-7 70 -129 0 -129 0 0 -275 0 -275 -90 0 -90 0 0 325 c0 253 3
325 13 326 10 0 10 2 0 6 -10 4 -13 76 -13 314 l0 309 85 0 85 0 0 -260z
m3090 160 l0 -100 -220 0 -220 0 0 -160 0 -160 120 0 121 0 -7 -37 c-4 -21 -8
-39 -9 -41 -2 -2 -69 2 -149 9 l-146 12 0 219 0 218 225 0 225 0 0 35 0 35
-259 0 -258 0 -7 -31 c-3 -17 -6 -141 -6 -275 0 -172 -3 -244 -11 -244 -7 0
-8 -6 -3 -17 5 -10 11 -144 14 -298 l5 -280 260 0 260 0 0 40 0 40 -217 3
-218 2 0 229 0 229 48 6 c26 3 91 8 145 12 78 5 97 3 97 -8 0 -7 3 -23 6 -35
6 -23 6 -23 -115 -23 l-121 0 0 -170 0 -170 214 0 c137 0 217 -4 221 -10 4 -6
9 -44 12 -84 5 -70 4 -76 -20 -100 l-26 -26 -279 0 c-267 0 -280 1 -306 21
l-26 20 0 294 c0 252 2 294 15 305 13 11 13 15 3 21 -10 6 -14 77 -17 314 l-3
305 326 0 326 0 0 -100z m1310 -340 c0 -147 -3 -180 -14 -180 -21 0 -26 33
-26 168 l0 123 -37 -3 -38 -3 0 -98 c0 -150 46 -137 -505 -137 -381 0 -465 -3
-500 -15 -56 -20 -56 -20 -68 14 -8 22 -7 34 3 48 13 17 42 18 509 21 l496 3
0 119 0 120 90 0 90 0 0 -180z m-3460 -136 c-25 -29 -56 -38 -150 -44 l-95 -5
-3 -42 -3 -42 443 -3 c408 -3 446 -4 480 -22 61 -30 81 -73 85 -181 2 -83 0
-96 -20 -126 -13 -19 -43 -45 -67 -59 l-45 -25 -437 -3 -438 -3 0 -33 0 -34
130 -7 c128 -7 130 -8 130 -31 l0 -24 -150 0 -150 0 0 100 0 100 440 0 c487 0
495 1 528 61 9 18 30 45 47 61 16 15 25 28 18 28 -6 0 -16 13 -23 29 -15 36
-56 77 -95 91 -20 8 -168 11 -472 10 l-443 0 0 110 0 110 151 0 c136 0 150 -2
139 -16z m665 0 c98 -10 167 -75 216 -203 31 -78 31 -204 0 -283 -29 -76 -96
-149 -163 -179 -52 -22 -60 -23 -353 -22 -165 0 -310 3 -323 7 -32 11 -24 39
13 47 17 4 154 7 306 8 275 1 275 1 327 27 170 85 205 326 68 467 -72 74 -96
79 -446 87 -168 4 -306 8 -308 9 -2 0 5 12 15 26 l18 25 290 -5 c160 -3 313
-8 340 -11z m2785 -224 l0 -170 -85 0 -85 0 0 120 0 120 -505 0 -505 0 0 46
c0 46 0 46 28 39 15 -4 248 -11 518 -14 395 -5 494 -9 507 -20 14 -11 17 -33
17 -117 l0 -104 40 0 40 0 0 135 c0 113 2 135 15 135 13 0 15 -26 15 -170z"/>
<path d="M510 3493 c0 -68 -3 -123 -7 -123 -5 0 -7 -56 -5 -125 2 -69 6 -125
10 -125 4 0 58 54 120 121 l113 120 -30 37 c-17 20 -69 78 -116 127 l-84 90
-1 -122z"/>
</g>
</svg>
