<?xml version="1.0" standalone="no"?>
<!DOCTYPE svg PUBLIC "-//W3C//DTD SVG 20010904//EN"
 "http://www.w3.org/TR/2001/REC-SVG-20010904/DTD/svg10.dtd">
<svg version="1.0" xmlns="http://www.w3.org/2000/svg"
 width="600.000000pt" height="600.000000pt" viewBox="0 0 600.000000 600.000000"
 preserveAspectRatio="xMidYMid meet">
<metadata>
Created by potrace 1.11, written by Peter Selinger 2001-2013
</metadata>
<g transform="translate(0.000000,600.000000) scale(0.100000,-0.100000)"
fill="#000000" stroke="none">
<path d="M0 3000 l0 -3000 3000 0 3000 0 0 3000 0 3000 -3000 0 -3000 0 0
-3000z m3172 977 c121 -59 177 -145 186 -283 l5 -84 -80 0 c-88 0 -105 9 -119
65 -19 79 -64 115 -146 115 -82 0 -138 -61 -138 -151 0 -40 5 -47 75 -114 41
-40 75 -75 75 -79 0 -3 -12 -6 -27 -6 -71 1 -165 98 -178 185 -18 120 97 236
219 223 67 -8 111 -41 153 -114 38 -65 58 -80 93 -69 44 14 11 127 -58 198
-60 63 -125 91 -207 92 -86 0 -145 -27 -211 -97 -62 -66 -84 -118 -84 -198 0
-117 52 -194 204 -305 58 -42 106 -81 106 -85 0 -21 -23 -17 -100 20 -107 52
-197 137 -236 223 -68 150 -9 366 122 443 104 61 246 70 346 21z m-2659 -589
c86 -90 160 -173 163 -186 4 -13 2 -34 -4 -48 -7 -13 -78 -94 -158 -179 -201
-212 -214 -211 -214 13 0 145 7 182 37 182 14 0 15 -15 8 -136 -5 -99 -4 -135
4 -133 6 2 69 67 141 143 l129 139 -132 140 -132 140 -3 -129 c-3 -134 -11
-162 -37 -128 -11 15 -14 52 -15 162 0 147 7 182 38 182 9 0 88 -73 175 -162z
m2648 -4 c80 -42 172 -135 210 -210 20 -42 24 -63 24 -149 0 -90 -3 -106 -28
-158 -36 -72 -112 -152 -174 -180 -37 -17 -67 -21 -133 -21 -74 0 -94 4 -151
30 -121 57 -156 103 -209 275 l-28 89 109 0 c105 0 109 -1 109 -22 0 -12 9
-41 21 -65 38 -78 139 -116 201 -75 48 32 71 71 76 129 l5 55 -73 70 c-63 61
-71 72 -58 84 12 13 22 9 76 -25 80 -52 97 -84 97 -187 0 -73 -3 -84 -28 -117
-41 -54 -80 -71 -162 -72 -87 0 -130 24 -174 95 -27 44 -72 80 -101 80 -14 0
-13 -53 2 -104 8 -27 32 -61 73 -103 50 -50 72 -65 120 -78 195 -57 403 123
382 330 -10 102 -65 176 -209 281 -82 60 -100 84 -61 84 8 0 46 -16 84 -36z
m-2131 -484 l0 -270 150 0 150 0 0 243 c0 175 4 249 13 267 12 23 18 25 96 28
l84 3 -6 -137 c-4 -76 -7 -215 -7 -311 0 -109 -4 -173 -10 -173 -6 0 -10 100
-10 280 l0 280 -49 0 -48 0 -7 -92 c-3 -50 -6 -169 -6 -265 l0 -173 -185 0
-185 0 0 264 0 264 -22 6 c-39 10 -66 7 -72 -10 -3 -9 -6 -125 -6 -258 0 -232
-8 -306 -31 -306 -5 0 -9 134 -9 315 l0 315 80 0 80 0 0 -270z m3220 175 l0
-95 -230 0 -230 0 0 -175 0 -175 125 0 125 0 -7 -32 c-3 -18 -7 -34 -8 -35 -1
-2 -65 3 -143 9 l-142 11 0 219 0 218 230 0 230 0 0 50 0 50 -280 0 -280 0 -2
-107 c-1 -60 -1 -135 1 -168 5 -108 -10 -305 -23 -305 -10 0 -14 73 -20 305
-4 168 -4 310 -1 315 4 6 133 10 331 10 l324 0 0 -95z m1360 -355 c0 -107 -4
-170 -10 -170 -6 0 -10 55 -10 145 l0 145 -50 0 -50 0 0 -104 c0 -105 -9 -134
-43 -137 -7 0 -223 -2 -482 -3 -413 -2 -475 -5 -514 -19 -50 -19 -63 -12 -59
33 l3 25 523 3 522 2 0 125 0 125 85 0 85 0 0 -170z m-3610 -146 c0 -16 -78
-34 -147 -34 -43 0 -83 -4 -90 -8 -6 -4 -13 -30 -14 -57 l-3 -50 479 -5 c525
-5 506 -3 545 -65 18 -29 39 -115 28 -115 -3 0 -18 20 -33 44 -15 24 -46 54
-69 67 l-41 24 -467 3 -468 3 0 99 0 100 140 0 c77 0 140 -2 140 -6z m772 -22
c113 -50 184 -195 177 -359 -7 -142 -94 -270 -209 -308 -40 -13 -96 -15 -363
-13 -173 2 -319 6 -323 11 -4 4 -2 13 5 20 9 9 90 12 316 14 287 2 306 3 354
24 85 36 159 139 176 246 16 99 -55 248 -141 299 -79 46 -136 54 -410 54 -276
0 -316 4 -307 28 6 13 45 14 344 9 303 -5 343 -8 381 -25z m-1863 -374 l1
-278 45 0 45 0 0 285 0 285 190 0 190 0 0 -285 0 -285 44 0 c31 0 46 5 50 16
3 9 6 132 6 274 0 287 3 320 31 320 18 0 19 -14 19 -311 0 -195 -4 -318 -10
-330 -9 -16 -22 -19 -85 -19 -69 0 -76 2 -91 25 -14 22 -16 43 -10 142 4 64 4
181 0 260 l-7 143 -143 0 -144 0 0 -280 0 -280 -85 0 -85 0 0 323 c0 178 3
327 7 331 4 4 13 -8 19 -26 9 -22 13 -122 13 -310z m2727 12 l2 -285 281 -3
281 -2 0 55 0 55 -230 0 -230 0 0 229 0 229 38 6 c20 3 85 8 145 11 92 6 107
5 107 -8 0 -9 3 -22 6 -31 5 -14 -9 -16 -120 -16 l-126 0 0 -185 0 -185 224 0
c137 0 227 -4 231 -10 3 -5 7 -43 8 -84 3 -117 22 -111 -327 -111 -275 0 -295
1 -315 19 -20 19 -21 27 -21 321 0 223 3 304 12 313 25 25 31 -35 34 -318z
m1964 155 l0 -165 -80 0 -80 0 0 125 0 125 -525 0 -525 0 0 36 c0 35 1 36 28
29 15 -5 255 -11 533 -14 407 -5 509 -9 522 -20 14 -11 17 -33 17 -122 l0
-109 50 0 50 0 0 140 c0 77 2 140 5 140 3 0 5 -74 5 -165z m-2804 -209 c-9
-36 -50 -81 -93 -102 -35 -18 -72 -19 -495 -22 l-458 -3 0 -43 0 -43 83 -6
c45 -4 106 -7 135 -7 39 0 52 -4 52 -15 0 -13 -23 -15 -150 -15 l-150 0 0 90
0 90 443 0 c290 0 456 4 482 11 38 11 81 48 119 104 19 28 20 28 29 7 5 -11 7
-32 3 -46z"/>
</g>
</svg>
